<svg xmlns="http://www.w3.org/2000/svg" viewBox="0 0 24 24" id="ChevronRightCircle">
  <defs>
    <linearGradient id="gradientChevron" x1="0%" y1="0%" x2="100%" y2="100%">
      <stop offset="0%" stop-color="#7624f3" />
      <stop offset="100%" stop-color="#550cf0" />
    </linearGradient>
  </defs>
  <path fill="none" d="M0 0h24v24H0Z"></path>
  <path fill="url(#gradientChevron)" d="M5.212 18.788a9.6 9.6 0 0 1 0-13.577 9.6 9.6 0 0 1 13.576 0 9.6 9.6 0 0 1 0 13.577A9.569 9.569 0 0 1 12 21.6a9.569 9.569 0 0 1-6.788-2.812Zm1.272-12.3a7.809 7.809 0 0 0 0 11.03 7.809 7.809 0 0 0 11.031 0 7.808 7.808 0 0 0 0-11.03A7.776 7.776 0 0 0 12 4.2a7.776 7.776 0 0 0-5.516 2.285Zm3.289 9.121a1.2 1.2 0 0 1 0-1.7L11.682 12l-1.909-1.909a1.2 1.2 0 0 1 0-1.7 1.2 1.2 0 0 1 1.7 0l2.758 2.758a1.2 1.2 0 0 1 0 1.7l-2.758 2.758a1.2 1.2 0 0 1-.848.351 1.194 1.194 0 0 1-.852-.352Z" class="color525863 svgShape"></path>
</svg>
