<?xml version="1.0" encoding="utf-8"?>
<svg viewBox="0 0 470 468" id="Video" xmlns="http://www.w3.org/2000/svg">
  <defs>
    <filter id="a" width="111.8%" height="111.9%" x="-5.9%" y="-3.9%" filterUnits="objectBoundingBox">
      <feOffset dy="5" in="SourceAlpha" result="shadowOffsetOuter1"/>
      <feGaussianBlur in="shadowOffsetOuter1" result="shadowBlurOuter1" stdDeviation="4"/>
      <feColorMatrix in="shadowBlurOuter1" result="shadowMatrixOuter1" values="0 0 0 0 0 0 0 0 0 0 0 0 0 0 0 0 0 0 0.078125 0"/>
      <feOffset dy="4" in="SourceAlpha" result="shadowOffsetOuter2"/>
      <feGaussianBlur in="shadowOffsetOuter2" result="shadowBlurOuter2" stdDeviation="5.5"/>
      <feColorMatrix in="shadowBlurOuter2" result="shadowMatrixOuter2" values="0 0 0 0 0 0 0 0 0 0 0 0 0 0 0 0 0 0 0.210824275 0"/>
      <feMerge>
        <feMergeNode in="shadowMatrixOuter1"/>
        <feMergeNode in="shadowMatrixOuter2"/>
      </feMerge>
    </filter>
    <path id="b" d="M9.635 132.808C24.782 59.782 71.388 19.109 144.085 6.822c53.74-9.081 107.5-9.196 161.15.255 74.852 13.185 119.85 56.23 134.185 130.36 11.075 57.29 11.249 115.191-.174 172.427-15.324 72.52-63.132 117.285-135.561 129.527-53.74 9.08-107.5 9.195-161.15-.255-74.852-13.186-120.05-58.38-134.384-132.509-11.64-57.668-10.52-115.935 1.484-173.82z"/>
  </defs>
  <g fill="none" fill-rule="evenodd">
    <g transform="translate(11 7)" fill="#6622e8" class="color000000 svgShape">
      <path d="M9.635 132.808C24.782 59.782 71.388 19.109 144.085 6.822c53.74-9.081 107.5-9.196 161.15.255 74.852 13.185 119.85 56.23 134.185 130.36 11.075 57.29 11.249 115.191-.174 172.427-15.324 72.52-63.132 117.285-135.561 129.527-53.74 9.08-107.5 9.195-161.15-.255-74.852-13.186-120.05-58.38-134.384-132.509-11.64-57.668-10.52-115.935 1.484-173.82z" fill="#6622e8" filter="url(#a)" class="color000000 svgShape"/>
      <path d="M9.635 132.808C24.782 59.782 71.388 19.109 144.085 6.822c53.74-9.081 107.5-9.196 161.15.255 74.852 13.185 119.85 56.23 134.185 130.36 11.075 57.29 11.249 115.191-.174 172.427-15.324 72.52-63.132 117.285-135.561 129.527-53.74 9.08-107.5 9.195-161.15-.255-74.852-13.186-120.05-58.38-134.384-132.509-11.64-57.668-10.52-115.935 1.484-173.82z" fill="#717af8" class="color987efc svgShape"/>
    </g>
    <path fill="#ffffff" d="M 351.833 198.667 L 370.833 198.667 L 370.717 301.692 C 370.688 326.447 350.613 346.5 325.858 346.5 L 154.333 346.5 L 154.333 327.5 L 323.346 327.5 C 339.079 327.5 351.833 314.746 351.833 299.014 L 351.833 198.667 Z M 206.178 134.747 C 203.86 132.759 200.907 131.667 197.854 131.667 L 120.667 131.667 L 120.667 346.334 L 100 346.334 L 100 124.67 C 100 117.12 106.12 111 113.669 111 L 204.256 111 C 208.02 111 211.661 112.344 214.522 114.79 L 246.876 142.44 C 249.564 144.737 252.983 146 256.519 146 L 368 146 L 368 166.667 L 249.241 166.667 C 245.723 166.667 242.32 165.417 239.638 163.142 L 206.178 134.748 L 206.178 134.747 Z" class="colorffffff svgShape"/>
  </g>
</svg>