<svg xmlns="http://www.w3.org/2000/svg" viewBox="0 0 24 24" id="full-screen">
    <defs>
        <linearGradient id="gradient10" x1="0%" y1="0%" x2="100%" y2="100%">
            <stop offset="0%" stop-color="rgba(130, 145, 255, 1)" />
            <stop offset="100%" stop-color="rgba(110, 30, 235, 1)" />
        </linearGradient>
    </defs>
    <path d="M7 22h2c.6 0 1-.4 1-1s-.4-1-1-1H7c-1.1 0-2-.9-2-2v-2c0-.6-.4-1-1-1s-1 .4-1 1v2c0 2.2 1.8 4 4 4zm8 0h2c2.2 0 4-1.8 4-4v-2c0-.6-.4-1-1-1s-1 .4-1 1v2c0 1.1-.9 2-2 2h-2c-.6 0-1 .4-1 1s.4 1 1 1zm0-17h2c1.1 0 2 .9 2 2v2c0 .6.4 1 1 1s1-.4 1-1V7c0-2.2-1.8-4-4-4h-2c-.6 0-1 .4-1 1s.4 1 1 1zM4 10c.6 0 1-.4 1-1V7c0-1.1.9-2 2-2h2c.6 0 1-.4 1-1s-.4-1-1-1H7C4.8 3 3 4.8 3 7v2c0 .6.4 1 1 1z" fill="url(#gradient10)"></path>
</svg>
