<svg xmlns="http://www.w3.org/2000/svg" viewBox="0 0 26 26" id="Label"><path style="line-height:normal;text-indent:0;text-align:start;text-decoration-line:none;text-transform:none;block-progression:tb" d="M13 0C5.826 0 0 5.826 0 13s5.826 13 13 13 13-5.826 13-13S20.174 0 13 0zm0 1.002c6.633 0 12 5.365 12 11.998 0 6.633-5.367 12-12 12S1 19.633 1 13 6.367 1.002 13 1.002zM7 10v7h11.191l1.75-3.5-1.75-3.5H7zm10 2c.823 0 1.5.678 1.5 1.5S17.823 15 17 15s-1.5-.678-1.5-1.5.677-1.5 1.5-1.5zm0 1c-.282 0-.5.218-.5.5 0 .282.218.5.5.5.282 0 .5-.218.5-.5 0-.282-.218-.5-.5-.5z" color="#000" font-family="sans-serif" font-weight="400" overflow="visible" fill="#6622e8" class="color000000 svgShape"></path></svg>