<svg xmlns="http://www.w3.org/2000/svg" xmlns:xlink="http://www.w3.org/1999/xlink" viewBox="0 0 28 28" id="File"><defs><linearGradient id="b" x1="906.952" x2="931.379" y1="515.915" y2="546.094" gradientTransform="translate(-810.086 -462.595) scale(.89708)" gradientUnits="userSpaceOnUse" xlink:href="#a"></linearGradient><linearGradient id="a"><stop offset="0" stop-color="#550cf0" class="stopColorffd800 svgShape"></stop><stop offset="1" stop-color="#7624f3" class="stopColorff6100 svgShape"></stop></linearGradient></defs><rect width="28" height="28" fill="url(#b)" rx="5.917" ry="5.917"></rect><path fill="#ffffff" d="M9.754 7C8.787 7 8 7.787 8 8.754v10.992c0 .967.787 1.754 1.754 1.754h7.992c.967 0 1.754-.787 1.754-1.754v-8.475c0-.007-.007-.012-.008-.019a.246.246 0 0 0-.064-.158l-4-4a.246.246 0 0 0-.15-.067C15.251 7.02 15.232 7 15.206 7H9.754zm0 .5H15v2.281c0 .96.78 1.74 1.738 1.74H19v8.225c0 .691-.563 1.254-1.254 1.254H9.754A1.256 1.256 0 0 1 8.5 19.746V8.754c0-.691.563-1.254 1.254-1.254Zm5.744.393c.771.766 2.316 2.3 3.147 3.128h-1.907c-.683 0-1.24-.557-1.24-1.24V7.893z" class="colorffffff svgShape"></path></svg>