<svg xmlns="http://www.w3.org/2000/svg" enable-background="new 0 0 128 128" viewBox="0 0 128 128" id="Music"><path fill="#6563ff" d="M124.6,4.5l-0.2-0.2c-1.1-1.4-3.5-2.7-6.5-2.7H10.1c-3,0-5.8,1.4-7,3.5L2.4,6.3l0,112.5c0,3.7,3.9,7.6,7.6,7.6
	H118c3.7,0,7.6-3.9,7.6-7.6V5.8L124.6,4.5z M85.6,45.2c-0.9,0.8-2.2,0.8-3.2,0.3l-8.5-5.3l0,44.6c0,1.5-0.2,3.1-0.7,4.5
	c-2.6,7.3-8.4,11.4-16.1,11.4c-10.3,0-18.2-10.1-14.7-20.9c2.1-6.5,8.3-10.6,15.1-10.5c2.1,0,4.1,0.4,5.8,1.1l2.6,1V32.2h0
	c0-0.8,0.2-1.6,0.6-2.3c1.4-2.5,4.5-3.3,6.9-2c0.6,0.3,1,0.7,1.4,1.2l11.2,12.2C86.9,42.5,86.8,44.2,85.6,45.2z" class="color2d3e50 svgShape"></path></svg>