<svg xmlns="http://www.w3.org/2000/svg"  x="0" y="0" version="1.1" viewBox="0 0 29 29" xml:space="preserve">
        <defs>
            <linearGradient id="gradient8" x1="0%" y1="0%" x2="100%" y2="100%">
                <stop offset="0%" stop-color="rgba(130, 145, 255, 1)" />
                <stop offset="100%" stop-color="rgba(110, 30, 235, 1)" />
            </linearGradient>
        </defs>
        <path d="M12.5 3v23a1 1 0 01-1 1h-4a1 1 0 01-1-1V3a1 1 0 011-1h4a1 1 0 011 1zM22.5 3v23a1 1 0 01-1 1h-4a1 1 0 01-1-1V3a1 1 0 011-1h4a1 1 0 011 1z" fill="url(#gradient8)"></path>
    </svg>